<svg width="635" height="635" viewBox="0 0 635 635" fill="none" xmlns="http://www.w3.org/2000/svg">
<path d="M121.496 368.714C121.769 317.583 163.441 276.355 214.571 276.628L365.309 277.434C416.753 277.709 457.953 320.156 456.694 371.585V371.585C455.477 421.321 414.903 461.058 365.153 461.24L214.414 461.79C162.957 461.977 121.221 420.17 121.496 368.714V368.714Z" fill="#5AA9E6"/>
<path d="M373.246 460.098C321.729 461.106 279.499 419.473 279.774 367.947L280.577 217.941C280.851 166.58 322.711 125.165 374.072 125.44V125.44C425.434 125.715 466.849 167.574 466.574 218.936L466.2 288.935L463.063 371.901C461.228 420.456 421.827 459.146 373.246 460.098V460.098Z" fill="#5AA9E6"/>
<path d="M458.497 368.313C458.219 420.36 415.754 462.326 363.649 462.047C311.544 461.769 289.003 462.51 268.741 371.934C240.011 243.508 240.958 236.198 365.429 275.245C458.412 304.414 458.776 316.267 458.497 368.313Z" fill="#5AA9E6"/>
<path d="M93.6483 339.571C93.9217 288.44 135.593 247.212 186.724 247.486L337.462 248.292C388.906 248.567 430.105 291.013 428.846 342.443V342.443C427.629 392.179 387.056 431.916 337.305 432.097L186.566 432.647C135.11 432.835 93.3732 391.027 93.6483 339.571V339.571Z" fill="#7FC8F8"/>
<path d="M338.121 431.955C286.603 432.964 244.374 391.331 244.649 339.805L245.451 189.799C245.726 138.437 287.585 97.0229 338.947 97.2975V97.2975C390.309 97.5722 431.723 139.432 431.449 190.793L431.074 260.792L427.938 343.758C426.103 392.314 386.702 431.004 338.121 431.955V431.955Z" fill="#FFE45E"/>
<path d="M430.607 348.212C430.352 395.816 391.905 434.203 344.732 433.951C297.559 433.699 247.905 440.861 245 355.991C240.489 224.204 233.667 227.381 346.353 263.09C430.533 289.765 430.861 300.607 430.607 348.212Z" fill="#FF6392"/>
<rect x="375.5" y="96.4915" width="56" height="272" rx="28" fill="#FF6392"/>
<path d="M466.5 221.991L462 196.491L458.5 184.991L455 176.491L452 169.991L448 162.991L442.5 156.991L436.5 151.491L428.5 149.491L405.984 144.991V96.5237L434.5 96.5237L446.5 96.5237C457.546 96.5237 466.5 105.478 466.5 116.524L466.5 221.991Z" fill="#FF6392"/>
</svg>
